# xmcd CD database file
#
# Track frame offsets:
#	150
#	17083
#	36792
#	53725
#
# Disc length: 976 seconds
#
# Revision: 0
# Processed by: cddbd v1.5.2PL0 Copyright (c) Steve Scherf et al.
# Submitted via: CDex 1.70beta3
#
DISCID=2803ce04
DTITLE=AAA - NO WAY BACK
DYEAR=2017
DGENRE=SonyMusic
TTITLE0=No Way Back
TTITLE1=Beat Together
TTITLE2=No Way Back (Instrumental)
TTITLE3=Beat Together (Instrumental)
EXTD=YEAR: 2017
EXTT0=
EXTT1=
EXTT2=
EXTT3=
PLAYORDER=
